<?xml version="1.0" encoding="utf-8"?>
<!-- Generator: Adobe Illustrator 19.0.0, SVG Export Plug-In . SVG Version: 6.00 Build 0)  -->
<svg version="1.1" id="Layer_1" xmlns="http://www.w3.org/2000/svg" xmlns:xlink="http://www.w3.org/1999/xlink" x="0px" y="0px"
	 viewBox="-255 334 100 125" style="enable-background:new -255 334 100 125;" xml:space="preserve">
<style type="text/css">
	.st0{fill:#800000;}
	.st1{fill:#C2D6D6;}
	.st2{font-family:'Cambria';}
	.st3{font-size:9px;}
</style>
<path class="st0" d="M-201.6,413.4l-2.2-2.2c2.2,1.1,4.3,2.2,7.6,0c-1.1,0-1.1-1.1-1.1-1.1c5.4-1.1,9.7-2.1,14-3.2
	c-1.1,0-1.1-1.1-2.2-1.1c3.2-2.1,7.6-2.1,10.8-5.4h-2.2c3.2-1.1,5.4-3.2,8.6-5.4h-7.6c0-1.1,1.1-1.1,2.2-1.1c-2.2-2.2-6.5,0-7.5-3.3
	l1.1-1.1c-2.2,0-4.3-2.2-5.4-3.3c0-1.1-4.3-1.1-2.1-3.2h1.1c-0.6-1.2-1.2-2.4-2.2-3.2c-0.3-0.2-2.1-1.1-4.3-0.9c0,0,0.5-1,2.6-0.7
	c0-0.2-0.1-0.4-0.4-0.7c-6.5-4.3-15.1-7.6-22.6-5.5c-6.5,1.1-8.7,8.6-14.1,11.8c-5.4,2.1-12.9,1-18.3,3.2v2.2c6.5-1.1,13-5.4,18.3-1
	c0,9.7,3.2,22.7,15,22.7C-208,411.3-205.9,414.5-201.6,413.4z M-201.8,392c-9.9-8-24.5-5.6-24.5-5.6c14.7-3.1,24.8,5.3,24.8,5.3
	c7.3,5.3,20.2,5.6,20.2,5.6C-195,397.8-201.8,392-201.8,392z"/>
<text transform="matrix(1 0 0 1 -217.8279 404.6554)" class="st1 st2 st3">Animals</text>
</svg>
