<?xml version="1.0" encoding="utf-8"?>
<!-- Generator: Adobe Illustrator 19.0.0, SVG Export Plug-In . SVG Version: 6.00 Build 0)  -->
<svg version="1.1" id="Layer_1" xmlns="http://www.w3.org/2000/svg" xmlns:xlink="http://www.w3.org/1999/xlink" x="0px" y="0px"
	 viewBox="-255 334 100 125" style="enable-background:new -255 334 100 125;" xml:space="preserve">
<style type="text/css">
	.st0{fill:#800000;}
	.st1{fill:#C2D6D6;}
	.st2{font-family:'Cambria';}
	.st3{font-size:9px;}
</style>
<path class="st0" d="M-199.2,418l-2.3-2.3c2.3,1.1,4.5,2.3,7.9,0c-1.1,0-1.1-1.1-1.1-1.1c5.6-1.1,10.1-2.2,14.6-3.3
	c-1.1,0-1.1-1.1-2.3-1.1c3.3-2.2,7.9-2.2,11.2-5.6h-2.3c3.3-1.1,5.6-3.3,8.9-5.6h-7.9c0-1.1,1.1-1.1,2.3-1.1c-2.3-2.3-6.8,0-7.8-3.4
	l1.1-1.1c-2.3,0-4.5-2.3-5.6-3.4c0-1.1-4.5-1.1-2.2-3.3h1.1c-0.6-1.2-1.2-2.5-2.3-3.3c-0.3-0.2-2.2-1.1-4.5-0.9c0,0,0.5-1,2.7-0.7
	c0-0.2-0.1-0.4-0.4-0.7c-6.8-4.5-15.7-7.9-23.5-5.7c-6.8,1.1-9,8.9-14.7,12.3c-5.6,2.2-13.4,1-19,3.3v2.3c6.8-1.1,13.5-5.6,19-1
	c0,10.1,3.3,23.6,15.6,23.6C-205.8,415.8-203.7,419.1-199.2,418z M-199.4,395.7c-10.3-8.3-25.5-5.8-25.5-5.8
	c15.3-3.2,25.8,5.5,25.8,5.5c7.6,5.5,21,5.8,21,5.8C-192.3,401.8-199.4,395.7-199.4,395.7z"/>
<text transform="matrix(1 0 0 1 -212.6284 408.1249)" class="st1 st2 st3">People</text>
</svg>
